<svg width="64" height="64" viewBox="0 0 64 64" fill="none" xmlns="http://www.w3.org/2000/svg">
<rect width="64" height="64" rx="24" fill="white"/>
<path d="M45.3202 35.3081C45.3159 35.8087 45.1206 36.2384 44.7429 36.5668L43.9428 37.2598C43.4162 37.7112 43.231 38.3999 43.4538 39.0568L43.8097 40.113C43.9689 40.5875 43.9211 41.0578 43.6694 41.4904C43.4176 41.9201 43.0328 42.1979 42.5394 42.2905L41.4991 42.4902C40.8177 42.6233 40.3142 43.1239 40.1767 43.8053L39.9583 44.8948C39.8584 45.3838 39.5807 45.7687 39.1466 46.0175C38.7126 46.2663 38.2423 46.3098 37.7692 46.1477L36.7695 45.8034C36.1141 45.5733 35.4254 45.7585 34.9653 46.2779L34.2231 47.1084C33.8903 47.486 33.4606 47.6785 32.96 47.6755C32.4594 47.6712 32.0297 47.4759 31.7012 47.0982L31.0082 46.2981C30.5568 45.7758 29.8681 45.5863 29.2112 45.8091L28.3967 46.0826C28.4083 46.0305 28.4155 45.9784 28.4227 45.9263L29.0188 41.6265C30.1589 42.3412 31.5117 42.7565 32.9557 42.7565C37.0633 42.7565 40.3967 39.423 40.3967 35.3154C40.3967 31.2078 37.0633 27.8743 32.9557 27.8743C28.8481 27.8743 25.5146 31.2078 25.5146 35.3154C25.5146 36.2558 25.6882 37.1558 26.0065 37.9819H23.8247C23.8696 37.7446 23.8985 37.5044 23.9173 37.2671C23.9766 36.3817 23.9289 35.3935 23.6352 34.5529C23.3863 33.841 22.9465 33.245 22.3273 32.931C22.5645 32.523 22.6166 32.0383 22.4575 31.5681L22.1016 30.5119C21.9424 30.0374 21.9902 29.5671 22.2419 29.1345C22.4936 28.7048 22.8785 28.427 23.3719 28.3344L24.4121 28.1347C25.0936 28.0045 25.6014 27.501 25.7345 26.8239L25.9573 25.7344C26.0543 25.2454 26.335 24.8605 26.769 24.6117C27.206 24.3629 27.6733 24.3195 28.1464 24.4815L29.1462 24.8259C29.8016 25.0516 30.4903 24.8707 30.9503 24.3513L31.6868 23.5179C32.0196 23.1403 32.4493 22.9479 32.9499 22.9508C33.4505 22.9551 33.8831 23.1505 34.2086 23.5281L34.9016 24.3282C35.3531 24.8549 36.0417 25.04 36.6986 24.8172L37.7548 24.4613C38.2293 24.3022 38.6996 24.3499 39.1322 24.6016C39.5619 24.8534 39.8397 25.2383 39.9323 25.7316L40.132 26.7719C40.2622 27.4533 40.7657 27.9568 41.4428 28.0943L42.5323 28.3128C43.0213 28.4126 43.4062 28.6904 43.655 29.1244C43.9038 29.5585 43.9472 30.0287 43.7852 30.5018L43.4452 31.5045C43.2195 32.1599 43.4003 32.8486 43.9197 33.3086L44.7531 34.0451C45.1307 34.375 45.3232 34.8089 45.3202 35.3081ZM26.2642 39.1423H22.271C22.53 38.4985 22.7123 37.846 22.7557 37.1833C22.8671 35.628 22.5445 33.857 21.2959 33.857C20.2296 33.857 20.1182 34.9161 20.1471 35.709C20.2021 37.1645 19.5177 38.9426 18.4167 40.2203C18.4456 40.3418 18.4644 40.4764 18.4644 40.6095V46.9394L19.1083 47.0986C19.3195 47.1506 19.4975 47.21 19.7159 47.21H25.6043C26.4449 47.21 27.1496 46.5994 27.2639 45.766L27.9193 41.051C27.9902 40.5548 27.8527 40.099 27.5228 39.7214C27.1973 39.3424 26.7633 39.1423 26.2642 39.1423ZM16.896 40.2014H14.0747C13.8519 40.2014 13.6667 40.3823 13.6667 40.6094V47.269C13.6667 47.4947 13.8475 47.677 14.0747 47.677H16.8974C17.1202 47.677 17.3054 47.4961 17.3054 47.269L17.304 40.6079C17.304 40.3822 17.1188 40.2014 16.896 40.2014ZM40.1941 22.7743C40.4719 22.9335 40.8234 22.8409 40.9869 22.5602L43.1572 18.8015C43.3163 18.5237 43.2208 18.1678 42.943 18.0086C42.6652 17.8495 42.3093 17.9421 42.1502 18.2228L39.9828 21.9859C39.8193 22.2637 39.9163 22.6152 40.1941 22.7743ZM24.9256 22.5631C25.0848 22.8409 25.4363 22.9378 25.7185 22.7772C25.9962 22.6181 26.0888 22.2665 25.9326 21.9844L23.7623 18.2257C23.6032 17.9479 23.2516 17.851 22.9695 18.0115C22.6917 18.1707 22.5991 18.5223 22.7554 18.8044L24.9256 22.5631ZM32.9556 20.8414C33.2782 20.8414 33.5372 20.5824 33.5372 20.2598V15.9151C33.5372 15.5925 33.2782 15.3335 32.9556 15.3335C32.633 15.3335 32.374 15.5925 32.374 15.9151V20.2557C32.3754 20.5783 32.6344 20.8414 32.9556 20.8414ZM15.8671 26.1149L19.6257 28.2852C19.9035 28.4443 20.2594 28.3517 20.4186 28.074C20.5777 27.7962 20.4851 27.4403 20.2074 27.2811L16.4513 25.1109C16.1735 24.9517 15.8176 25.0443 15.6584 25.3221C15.4964 25.5999 15.5893 25.9558 15.8671 26.1149ZM50.2538 25.3221C50.0946 25.0443 49.7387 24.9517 49.4609 25.1109L45.7008 27.2825C45.423 27.4417 45.3304 27.7976 45.4895 28.0754C45.6487 28.3532 46.0046 28.4458 46.2824 28.2866L50.0411 26.1164C50.3232 25.9558 50.4158 25.5999 50.2538 25.3221ZM33.0049 29.9375C32.6822 29.9375 32.4232 30.2008 32.4232 30.522V31.2295C31.9791 31.3293 31.5826 31.5478 31.2672 31.8444C30.8086 32.2741 30.5265 32.8702 30.5265 33.53C30.5265 34.1854 30.8086 34.7815 31.2672 35.2112C31.6333 35.5556 32.1151 35.7957 32.649 35.8709C32.701 35.8854 32.7604 35.897 32.8197 35.897H32.9123C33.2827 35.897 33.6154 36.0373 33.8571 36.263C34.0871 36.4772 34.2274 36.7738 34.2274 37.1007C34.2274 37.4263 34.0871 37.72 33.8571 37.9384C33.6169 38.1641 33.2827 38.3016 32.9123 38.3016C32.62 38.3016 32.3495 38.2133 32.131 38.0687C31.9125 37.9211 31.7461 37.7098 31.6608 37.4682C31.5537 37.1644 31.2238 37.0052 30.92 37.1123C30.6162 37.2194 30.457 37.5536 30.5641 37.8531C30.7348 38.3305 31.056 38.7385 31.4828 39.0279C31.7389 39.1986 32.0239 39.3274 32.335 39.3983V40.1058C32.335 40.4284 32.594 40.6874 32.9166 40.6874C33.2393 40.6874 33.5011 40.4284 33.5011 40.1058V39.394C33.9424 39.2898 34.3417 39.0713 34.6572 38.779C35.1158 38.3493 35.3979 37.7533 35.3979 37.0935C35.3979 36.4381 35.1158 35.842 34.6572 35.4123C34.2911 35.0679 33.8093 34.8278 33.2754 34.7525C33.2233 34.7381 33.164 34.7265 33.1047 34.7265H33.0121C32.6417 34.7265 32.309 34.5861 32.0717 34.3604C31.8387 34.1463 31.6969 33.8497 31.6969 33.5227C31.6969 33.1972 31.8373 32.9006 32.0717 32.685C32.3089 32.4593 32.6417 32.319 33.0121 32.319C33.3087 32.319 33.5749 32.4072 33.7934 32.5563C34.0119 32.7038 34.1783 32.9151 34.2636 33.1567C34.3707 33.4605 34.7049 33.6197 35.0044 33.5126C35.3082 33.4055 35.4674 33.0757 35.3603 32.7718C35.1896 32.2944 34.8684 31.8864 34.4416 31.597C34.1855 31.4263 33.9005 31.2975 33.5894 31.2266V30.5191C33.5865 30.2008 33.326 29.9375 33.0049 29.9375Z" fill="url(#paint0_linear_2073_8975)"/>
<defs>
<linearGradient id="paint0_linear_2073_8975" x1="38.7567" y1="36.2126" x2="26.5204" y2="25.4158" gradientUnits="userSpaceOnUse">
<stop stop-color="#2D52A0"/>
<stop offset="1" stop-color="#41BCDE"/>
</linearGradient>
</defs>
</svg>
