<svg width="64" height="64" viewBox="0 0 64 64" fill="none" xmlns="http://www.w3.org/2000/svg">
<path d="M0 24C0 10.7452 10.7452 0 24 0H40C53.2548 0 64 10.7452 64 24V40C64 53.2548 53.2548 64 40 64H24C10.7452 64 0 53.2548 0 40V24Z" fill="white"/>
<path fill-rule="evenodd" clip-rule="evenodd" d="M50.7075 36.507H51.9996V32.5982C51.9996 32.3969 51.964 32.2246 51.8846 32.0368L49.1881 25.6879C48.9291 25.0779 48.3182 24.6961 47.6018 24.6961H41.4018V41.4722C41.6061 41.4722 41.8105 41.4722 42.0149 41.4722C42.0149 39.2469 43.8198 37.442 46.0451 37.442C48.2704 37.442 50.0753 39.2469 50.0753 41.4722C50.3769 41.4722 50.6784 41.4722 50.9804 41.4722C51.5418 41.4722 52 41.014 52 40.4526V39.0529H50.7079C50.4489 39.0529 50.238 38.8416 50.238 38.583V36.9768C50.2376 36.7178 50.4489 36.507 50.7075 36.507ZM42.1802 32.0906V26.7856H47.3845L49.6376 32.0906H42.1802ZM38.7313 20.3335C31.0513 20.3335 23.3714 20.3335 15.6914 20.3335C15.3291 20.3335 15.0358 20.6272 15.0358 20.9891C15.0358 21.3514 15.3295 21.6447 15.6914 21.6447H19.3255C19.9624 21.6447 20.4835 22.1657 20.4835 22.8022C20.4835 23.4392 19.9624 23.9602 19.3255 23.9602H13.5329H12.6556C12.2933 23.9602 12 24.254 12 24.6158C12 24.9781 12.2937 25.2714 12.6556 25.2714H18.2877C18.9246 25.2714 19.4457 25.7925 19.4457 26.429C19.4457 27.0659 18.9246 27.587 18.2877 27.587H14.5013C14.139 27.587 13.8457 27.8807 13.8457 28.2426C13.8457 28.6044 14.1394 28.8981 14.5013 28.8981H19.9464C20.5833 28.8981 21.1044 29.4192 21.1044 30.0557C21.1044 30.6926 20.5833 31.2137 19.9464 31.2137C17.5163 31.2137 15.0857 31.2137 12.6556 31.2137C12.2933 31.2137 12 31.5074 12 31.8693C12 32.2316 12.2937 32.5249 12.6556 32.5249H18.2877V40.1116C18.2877 40.8604 18.8986 41.4709 19.647 41.4709H22.4594C22.4594 39.2456 24.2643 37.4407 26.4896 37.4407C28.7149 37.4407 30.5198 39.2456 30.5198 41.4709H40.0906V21.6933C40.0906 20.9444 39.4797 20.3335 38.7313 20.3335ZM29.8686 36.2601C26.7551 36.2601 24.2313 33.7362 24.2313 30.6228C24.2313 27.5093 26.7551 24.9855 29.8686 24.9855C32.9821 24.9855 35.5059 27.5093 35.5059 30.6228C35.5059 33.7362 32.9821 36.2601 29.8686 36.2601ZM29.128 31.12L31.8692 28.3515C32.1937 28.0239 32.723 28.023 33.0498 28.348C33.3765 28.673 33.3773 29.2005 33.0532 29.5277C31.9416 30.6497 30.8379 31.7786 29.7211 32.8954C29.3948 33.2217 28.8651 33.2217 28.5388 32.8954L26.6861 31.0428C26.3599 30.7165 26.3599 30.1867 26.6861 29.8605C27.0124 29.5342 27.5422 29.5342 27.8685 29.8605L29.128 31.12ZM26.4896 38.7535C24.988 38.7535 23.771 39.9706 23.771 41.4722C23.771 42.9738 24.988 44.1908 26.4896 44.1908C27.9912 44.1908 29.2082 42.9738 29.2082 41.4722C29.2082 39.9706 27.9908 38.7535 26.4896 38.7535ZM26.4896 42.3985C25.9776 42.3985 25.5633 41.9842 25.5633 41.4722C25.5633 40.9602 25.9776 40.5459 26.4896 40.5459C27.0016 40.5459 27.4159 40.9602 27.4159 41.4722C27.4155 41.9842 27.0011 42.3985 26.4896 42.3985ZM46.0451 38.7535C44.5435 38.7535 43.3265 39.9706 43.3265 41.4722C43.3265 42.9738 44.5435 44.1908 46.0451 44.1908C47.5467 44.1908 48.7637 42.9738 48.7637 41.4722C48.7642 39.9706 47.5467 38.7535 46.0451 38.7535ZM46.0451 42.3985C45.5331 42.3985 45.1188 41.9842 45.1188 41.4722C45.1188 40.9602 45.5331 40.5459 46.0451 40.5459C46.5571 40.5459 46.9714 40.9602 46.9714 41.4722C46.9714 41.9842 46.5571 42.3985 46.0451 42.3985Z" fill="url(#paint0_linear_2073_8976)"/>
<defs>
<linearGradient id="paint0_linear_2073_8976" x1="39.371" y1="35.7345" x2="30.5874" y2="24.2722" gradientUnits="userSpaceOnUse">
<stop stop-color="#2D52A0"/>
<stop offset="1" stop-color="#41BCDE"/>
</linearGradient>
</defs>
</svg>
