<svg width="64" height="64" viewBox="0 0 64 64" fill="none" xmlns="http://www.w3.org/2000/svg">
<path d="M0 24C0 10.7452 10.7452 0 24 0H40C53.2548 0 64 10.7452 64 24V40C64 53.2548 53.2548 64 40 64H24C10.7452 64 0 53.2548 0 40V24Z" fill="white"/>
<path d="M23.4833 23.4671L26.4521 25.1817V30.6483C26.4521 30.8417 26.5557 31.0205 26.723 31.1172L30.6731 33.399C30.7569 33.4477 30.85 33.4713 30.9436 33.4713C31.0367 33.4713 31.1306 33.4477 31.214 33.399C31.3817 33.3022 31.4849 33.1238 31.4849 32.9307V28.0875L33.9274 29.4972V35.4922H35.0101H35.1487C36.628 35.4922 37.8514 36.6121 38.014 38.048L43.6146 32.4496C44.085 31.9792 44.7528 31.6245 45.4543 31.4515C45.8139 31.363 46.1822 31.3218 46.5369 31.3372V22.5296C46.5369 22.3361 46.4334 22.1577 46.2657 22.0613L42.2138 19.7223L41.1577 19.1122L38.7911 17.7451C38.7857 17.7422 38.7811 17.739 38.7757 17.7368L34.7389 15.406C34.5719 15.3093 34.3652 15.3093 34.1976 15.406L22.6708 22.0613C22.5038 22.158 22.4003 22.3365 22.4003 22.5296V35.6796C22.722 35.5872 23.0802 35.5263 23.4829 35.5033L23.4833 23.4671ZM41.9437 20.8157L44.9126 22.5296L34.4684 28.56L31.4981 26.8461L41.9437 20.8157ZM34.4684 16.4994L37.4373 18.214L26.9934 24.2442L24.0246 22.5296L34.4684 16.4994ZM17.3106 24.6275C17.3106 24.3287 17.5528 24.0862 17.8519 24.0862H21.0701C21.3689 24.0862 21.6114 24.3283 21.6114 24.6275C21.6114 24.9266 21.3692 25.1688 21.0701 25.1688H17.8519C17.5528 25.1688 17.3106 24.9263 17.3106 24.6275ZM15.8747 27.2911C15.5759 27.2911 15.3334 27.0489 15.3334 26.7498C15.3334 26.451 15.5756 26.2085 15.8747 26.2085H21.0701C21.3689 26.2085 21.6114 26.4506 21.6114 26.7498C21.6114 27.0486 21.3692 27.2911 21.0701 27.2911H15.8747ZM21.611 28.8728C21.611 29.1716 21.3689 29.4141 21.0697 29.4141H19.2462C18.9474 29.4141 18.7049 29.1719 18.7049 28.8728C18.7049 28.574 18.9471 28.3315 19.2462 28.3315H21.0701C21.3689 28.3315 21.611 28.5736 21.611 28.8728ZM21.0701 31.5364H16.1792C15.8804 31.5364 15.6379 31.2942 15.6379 30.9951C15.6379 30.6963 15.8801 30.4538 16.1792 30.4538H21.0701C21.3689 30.4538 21.6114 30.6959 21.6114 30.9951C21.611 31.2942 21.3689 31.5364 21.0701 31.5364ZM21.611 33.1177C21.611 33.4165 21.3689 33.6591 21.0697 33.6591H17.8515C17.5528 33.6591 17.3102 33.4169 17.3102 33.1177C17.3102 32.8189 17.5524 32.5764 17.8515 32.5764H21.0697C21.3689 32.5768 21.611 32.8189 21.611 33.1177ZM48.6667 34.0259L38.3096 44.3827C37.5709 45.1214 36.7071 45.5316 35.6671 45.6369L35.4307 45.6613L23.5392 45.8296C23.3575 45.8325 23.1892 45.9257 23.091 46.079L21.519 48.537L17.1067 44.1244L19.9896 39.6C20.0971 39.4316 20.2006 39.2661 20.3006 39.1045C21.284 37.5271 21.8779 36.5742 23.8609 36.5742H35.1484C36.1418 36.5742 36.95 37.3824 36.95 38.3758C36.95 38.7341 36.8433 39.0812 36.6459 39.3753H28.6848C28.386 39.3753 28.1434 39.6172 28.1434 39.9167C28.1434 40.2155 28.386 40.4573 28.6848 40.4573H36.9106C36.9511 40.4573 36.9898 40.4533 37.0274 40.4444C37.0335 40.4429 37.0396 40.4415 37.0457 40.4404C37.0618 40.4365 37.0776 40.4311 37.093 40.4254C37.1005 40.4225 37.1073 40.42 37.1138 40.4171C37.1238 40.4132 37.1345 40.4089 37.1449 40.4035C37.1532 40.4003 37.1603 40.396 37.1678 40.3921C37.18 40.3853 37.1922 40.3777 37.2037 40.3713C37.2219 40.3591 37.2388 40.3469 37.2542 40.334C37.2678 40.3226 37.2807 40.3111 37.2929 40.2989L44.3795 33.2145C45.1214 32.4718 46.7475 32.106 47.3917 32.7487L48.6667 34.0259Z" fill="url(#paint0_linear_2073_8977)"/>
<defs>
<linearGradient id="paint0_linear_2073_8977" x1="38.1425" y1="36.7678" x2="25.8581" y2="27.1691" gradientUnits="userSpaceOnUse">
<stop stop-color="#2D52A0"/>
<stop offset="1" stop-color="#41BCDE"/>
</linearGradient>
</defs>
</svg>
